<svg width="1071" height="875" viewBox="0 0 1071 875" fill="none" xmlns="http://www.w3.org/2000/svg">
<path d="M190.95 875H88.5L279 506L0 0H139.5L327.563 348.739C335.185 362.872 355.516 362.714 362.916 348.463L527 32.5L516.5 0H666.221C682.173 0 696.6 9.47827 702.933 24.1193L1071 875H936.5L830.498 624.609C821.104 602.418 799.344 588 775.246 588H474.5L516.399 494.624C522.85 480.249 537.138 471 552.894 471H740.602C754.978 471 764.659 456.286 758.969 443.084L634.491 154.264C627.85 138.855 606.329 137.981 598.46 152.801L226.279 853.758C219.338 866.829 205.749 875 190.95 875Z" fill="#E0E0E0"/>
</svg>
